<?xml version="1.0" encoding="UTF-8" standalone="no"?> <svg xmlns="http://www.w3.org/2000/svg" viewBox="0 0 64 64"><defs><style>.cls-1{fill:#ff6b6b;}</style></defs><g id="Layer_67" data-name="Layer 67"><path class="cls-1" d="M32,3.4h0A28.59,28.59,0,0,0,3.4,32h0A28.59,28.59,0,0,0,32,60.6h0A28.59,28.59,0,0,0,60.6,32h0A28.59,28.59,0,0,0,32,3.4Zm-14.21,46,5.3-2.41H40.91l5.3,2.41Zm-4.54-3.91a1.5,1.5,0,0,1-1.5-1.5V18.44a1.5,1.5,0,0,1,1.5-1.5h37.5a1.5,1.5,0,0,1,1.5,1.5v25.5a1.5,1.5,0,0,1-1.5,1.5Z"/></g></svg>